<?xml version="1.0" encoding="UTF-8"?>
<!-- Generator: Adobe Illustrator 24.3.0, SVG Export Plug-In . SVG Version: 6.00 Build 0)  -->
<svg version="1.1" id="Слой_1" xmlns="http://www.w3.org/2000/svg" xmlns:xlink="http://www.w3.org/1999/xlink" x="0px" y="0px" viewBox="0 0 90 60" style="enable-background:new 0 0 90 60;" xml:space="preserve">
<style type="text/css">
	.st0{fill:#4A90E2;}
</style>
<g transform="translate(0.000000,600.000000) scale(0.100000,-0.100000)">
	<path class="st0" d="M500.3,5967.3c-8.2-3-13.9-7.9-16.6-14.1c-2-4.9-2.7-16.6-3.3-60.1c-0.5-29.7-1.2-55-1.5-56   c-0.7-1.7-25.4-2.2-116.6-2.2c-108.6,0-116.8-0.2-127.1-3.2c-10.9-3-17.7-7.5-21.3-14.1c-3.4-6.4-5.9-23.3-6-40.5   c0-19.8,0.2-19.6-13.9-22.6c-17.8-3.9-21.8-4.9-31.2-8c-23-7.4-30-12.3-64.6-46c-25.5-24.7-45.7-40.8-60.6-48   c-3.2-1.5-11.4-5.2-18.5-8.4l-12.8-5.7L7,5606c0.3-17.8,1.2-35.1,1.8-38.1s2-10.2,3-15.6c6.2-34.9,16.6-48.8,47.2-64.1   c12.4-6.2,14.1-7,24.5-10.2c34.1-10.3,83.4-3.4,123.2,17.3c10.3,5.4,45.7,31.2,73.5,53.6c19.6,15.9,24,18.8,27.7,18.8   c2.5,0,10-6.4,22.8-19.3c11.9-12.1,21.8-20.6,26.5-23c10.8-5.2,21.6-4.7,33.6,1.3c5.2,2.7,10.2,4.9,10.8,4.9s5.9-3,11.8-6.7   c18.1-11.4,31.4-11.9,48-2.2c4.9,3.2,10.8,5.6,12.9,5.6h3.9v-20.8c0.2-24.5,2.2-42.8,5.7-49.5c4.2-8.4,13.4-15.9,22.6-18.8   c7.9-2.5,24.4-2.7,181.4-2.3c165.5,0.5,173,0.7,178.4,3.6c10.6,6,10.2-10.3,9.7,256.3l-0.5,242l-3.9,7.9   c-4.9,9.9-14.1,17.8-23.8,20.5C837.8,5969.9,507.9,5969.9,500.3,5967.3z M797.9,5895.7c2.5-0.8,5.2-3.3,6.2-5.2   c1.2-2,2.7-18.1,3.4-38.1c2-42.3,2.8-327.6,1-333.8l-1.2-4.6H681.5c-107.4,0-126.2,0.3-127.7,2.3c-2.2,2.7-3,49.5-1,51.4   c0.5,0.7,5.6,2,11.1,3.2c13.3,2.8,22.3,9,27.4,19.3c3.6,7.2,4.1,11.3,5.4,36.1c0.7,15.3,1,58.8,0.7,96.7   c-1,83.2-1.8,88.6-16.6,99.9c-3.2,2.3-9.9,5.9-15.3,8l-9.5,3.6l0.5,30.2c0.3,19.1,1.2,30.9,2.3,32.2c1.5,2,22,2.2,118.3,1.5   C750.6,5897.7,795.2,5896.9,797.9,5895.7z M521.8,5812.1c41.1-1.3,45.7-2.7,49.2-13.4c2.5-7.4,4.4-86.6,2.3-90   c-1.3-2.2-21.8-2.5-171.5-1.8c-93.5,0.3-170.5,0.8-171.2,1.3c-1.7,0.8-1.5,54.5,0.2,77.9c1.3,19.3,3.2,23.1,12.3,25.7   C249.1,5813.6,471.1,5814,521.8,5812.1z M208.5,5733.1c0.5-2.2,0.7-30.7,0.5-63.4l-0.3-59.6l-11.4-4.2c-16.3-6-18.3-7.5-16.3-11.1   c2.5-4.1,11.3-5.9,23.6-4.9c8.4,0.7,18.8,4.2,48.3,16.1c37.8,15.1,62.3,22.8,72.9,22.8c6.7,0,15.8-6.4,14.4-10.2   c-0.5-1.3-9.4-7.7-19.6-14.1c-10.2-6.4-36.6-25.5-58.6-42.3c-62.3-47.5-77.5-56.4-111.3-64.6c-12.6-3.2-18-3.6-34.2-2.8   c-37.6,1.7-64.6,13.4-74.4,32.9c-8.9,17.3-14.6,47.5-14.3,74.7c0.3,23.3-0.2,22.5,19.5,32.4c22.3,11.3,33.9,20.3,69.1,54.1   c32.9,31.6,41.3,36.7,69.3,43.6C206.6,5737.4,207.7,5737.4,208.5,5733.1z M250.4,5627c0-1.5-12.6-6.7-16.1-6.7c-1.2,0-2,1.8-2,4.1   c0,3.9,0.5,4.1,9,4.1C246.4,5628.5,250.4,5627.8,250.4,5627z M573.9,5624.3c3.2-3,2.2-12.9-2.2-22c-5.6-11.8-1.5-11.4-120-11.4   c-58.4,0-106.2,0.7-106.2,1.3c0,0.8,2.7,3.4,5.9,6c6.7,5.4,12.1,15.1,12.1,22c0,3.3,1,5.1,3,5.6c1.5,0.5,48.3,0.8,103.9,1   C560.1,5626.8,571.5,5626.5,573.9,5624.3z M437.7,5557.2c8.7-6.9,15.9-13.3,15.9-14.6c0-1.2-1.5-3.4-3.4-5.2   c-4.7-4.2-13.6-3.7-24.7,1.7c-10.4,5.1-34.1,24.5-34.1,28.2c0,1.8,3.2,2.3,15.3,2.3h15.1L437.7,5557.2z M493.4,5566.9   c8.9-4.6,15.9-10.4,15.9-13.6c0-3.6-6.4-6.7-13.8-6.7c-3.9,0-9.9,2.8-20.5,9.9c-8.4,5.4-14.6,10.6-14.1,11.4   C462.6,5570.7,487.6,5569.9,493.4,5566.9z M372.3,5557.9c5.1-5.4,9.2-10.8,9.2-11.9c0-3.7-8.5-4.2-15.9-1c-7,3.2-20.8,14.8-23.6,20   c-1.5,2.8-0.7,3,9.9,3h11.3L372.3,5557.9z"/>
	<path class="st0" d="M701.6,5824.3c-3.9-6-1.8-10.6,8.2-18.3c12.4-9.5,21.5-21.5,30.7-40.6c12.4-25.9,15.3-38.1,15.3-66.3   c0.2-25.7-1.2-33.4-9.4-54.9c-9.2-24.4-20.1-39.8-40.1-56.7c-3.7-3.3-6.9-7.4-6.9-9.2c0-5.4,3.9-9.2,9.5-9   c25.5,0.7,60.4,51,69.1,99.4c2.8,15.8,1.3,57.2-2.5,71.3c-3.6,13.3-13.6,36.7-20.8,48.7c-7.5,12.8-27,33.2-34.9,36.7   C710.5,5829.6,704.9,5829.2,701.6,5824.3z"/>
	<path class="st0" d="M657.8,5778.7c-2-1.5-3.2-4.2-3.2-7.4c0-4.1,2-7.2,10.4-15.4c17.2-17.1,24.4-33.7,24.4-58   c0-14.1-3.9-29.5-10.3-40c-2-3.2-8.5-10.9-14.6-17.5c-6.1-6.6-11.1-12.9-11.1-14.4c0-3,7-10.6,9.9-10.6c1,0,5.9,2,10.6,4.2   c6.4,3,11.4,7.2,18,15.1c16.1,19.1,22.1,35.7,22.1,60.1c0,28.5-5.7,46.8-20.8,65.5C680.1,5776.7,665.3,5784.4,657.8,5778.7z"/>
	<path class="st0" d="M622.7,5728.2c-3-3-2.3-8.2,2.2-17.1c5.1-10.2,5.1-16.1,0-24.4c-5.2-8.5-5.2-14.8,0-18.1   c5.6-3.6,11.8-1.3,18.3,7.2c10.9,14.4,10,34.4-2.3,48c-4.4,4.9-7,6.4-10.9,6.4C626.9,5730.1,623.8,5729.2,622.7,5728.2z"/>
</g>
</svg>